<?xml version="1.0" standalone="no"?>
<!DOCTYPE svg PUBLIC "-//W3C//DTD SVG 20010904//EN"
 "http://www.w3.org/TR/2001/REC-SVG-20010904/DTD/svg10.dtd">
<svg version="1.0" xmlns="http://www.w3.org/2000/svg"
 width="512.000000pt" height="512.000000pt" viewBox="0 0 512.000000 512.000000"
 preserveAspectRatio="xMidYMid meet">
<metadata>
Created by potrace 1.11, written by Peter Selinger 2001-2013
</metadata>
<g transform="translate(0.000000,512.000000) scale(0.100000,-0.100000)"
fill="#000000" stroke="none">
<path d="M3449 5043 c-1 -5 -1 -11 0 -15 0 -5 -5 -8 -11 -9 -51 -3 -79 -9 -98
-19 -18 -10 -21 -10 -14 2 6 10 5 11 -7 2 -12 -10 -82 -37 -99 -39 -3 0 -11
-4 -17 -8 -7 -5 -13 -5 -13 -2 0 4 -7 -1 -16 -9 -8 -9 -22 -16 -30 -16 -8 0
-14 -5 -14 -11 0 -5 -4 -7 -10 -4 -5 3 -10 1 -10 -4 0 -6 -6 -11 -14 -11 -7 0
-19 -7 -26 -15 -7 -9 -19 -14 -26 -11 -8 3 -13 0 -11 -7 1 -7 -6 -11 -15 -11
-10 1 -16 -2 -13 -6 3 -4 -8 -16 -23 -26 -15 -9 -37 -29 -49 -43 -13 -14 -23
-21 -23 -16 0 6 -6 -1 -13 -14 -6 -13 -16 -24 -22 -24 -5 0 -23 -17 -38 -38
-16 -22 -34 -36 -39 -32 -7 3 -8 1 -4 -5 3 -6 -2 -15 -11 -21 -10 -6 -14 -11
-10 -11 4 0 2 -6 -5 -14 -10 -11 -16 -11 -28 -2 -13 10 -13 9 -1 -7 9 -11 11
-21 5 -25 -5 -4 -23 -27 -39 -52 -17 -25 -37 -51 -45 -58 -9 -8 -10 -11 -2 -7
11 6 11 3 1 -13 -7 -12 -18 -18 -24 -15 -5 4 -7 3 -3 -1 6 -7 -7 -46 -45 -136
-5 -14 -12 -34 -14 -45 -2 -10 -7 -22 -11 -25 -4 -3 -8 -16 -9 -30 -1 -14 -4
-41 -7 -60 -4 -19 -8 -52 -9 -73 -1 -21 -8 -42 -16 -46 -11 -7 -11 -9 0 -13 8
-3 14 -26 17 -64 4 -84 6 -94 12 -95 3 0 17 -2 33 -4 17 -2 25 0 21 7 -4 7 0
7 13 -1 12 -6 24 -6 29 -1 5 5 33 11 62 12 28 2 52 7 52 12 0 4 11 6 25 4 15
-3 22 -1 18 5 -4 6 0 8 10 4 10 -4 17 -2 17 4 0 6 6 9 14 6 8 -3 16 -2 18 2 5
14 99 51 111 44 6 -3 7 -1 3 6 -5 7 7 18 33 30 23 10 38 21 33 26 -4 4 1 5 11
2 12 -5 16 -3 11 5 -5 7 -2 9 9 5 12 -4 14 -2 10 11 -6 15 -5 16 12 2 13 -10
16 -11 11 -2 -5 9 4 25 28 47 20 18 36 31 36 29 0 -2 12 9 27 24 15 15 26 31
25 35 -1 5 7 11 18 14 11 3 18 9 15 13 -3 5 7 18 21 29 15 12 23 21 19 21 -5
0 0 9 10 20 10 11 22 17 26 14 5 -3 6 2 3 10 -3 9 -1 16 5 16 6 0 11 7 11 15
0 8 8 15 18 16 10 0 12 3 4 6 -9 3 -7 12 8 33 11 15 20 33 20 39 0 6 5 11 11
11 5 0 7 5 4 10 -3 6 -1 10 4 10 6 0 11 9 11 19 0 11 5 23 10 26 6 3 10 15 10
26 0 10 4 19 9 19 4 0 8 8 7 18 0 9 5 33 13 52 14 35 19 56 24 96 1 12 9 30
17 40 9 11 10 15 3 10 -16 -9 -17 18 -2 46 9 16 8 19 -2 13 -8 -6 -10 -4 -3 6
4 8 8 30 9 49 0 19 4 41 9 49 6 10 6 12 -3 7 -9 -6 -11 3 -8 33 2 23 1 41 -3
41 -4 0 -7 10 -6 23 1 18 -5 23 -32 25 -18 2 -30 8 -27 13 4 5 4 9 1 9 -3 0
-7 -3 -7 -7z"/>
<path d="M1769 3915 c0 -13 -3 -15 -6 -6 -4 11 -7 11 -13 0 -7 -10 -12 -10
-26 2 -11 9 -15 9 -10 2 4 -8 1 -13 -8 -13 -9 0 -16 6 -16 13 0 9 -2 9 -8 -1
-5 -7 -30 -14 -55 -15 -26 -1 -47 -5 -47 -9 0 -4 -9 -5 -20 -3 -11 2 -20 0
-20 -4 0 -4 -13 -7 -30 -6 -16 1 -27 -2 -25 -6 5 -7 -71 -25 -87 -21 -5 1 -8
-3 -8 -8 0 -5 -9 -10 -20 -10 -11 0 -20 -4 -20 -9 0 -5 -18 -12 -40 -16 -25
-4 -38 -11 -33 -17 4 -7 -2 -9 -15 -6 -14 4 -20 2 -15 -5 4 -7 0 -8 -11 -4
-10 4 -15 3 -11 -3 5 -8 -47 -42 -56 -37 -2 1 -3 0 -1 -2 4 -8 -52 -40 -60
-35 -5 3 -8 2 -7 -3 3 -20 -2 -27 -11 -13 -8 13 -10 13 -10 -2 0 -19 -48 -60
-61 -52 -5 3 -6 -3 -2 -13 3 -10 3 -15 -2 -11 -4 4 -21 -9 -36 -29 -16 -20
-29 -32 -29 -28 0 4 -14 -11 -30 -34 -18 -24 -35 -39 -42 -35 -6 4 -8 3 -5 -3
8 -13 -27 -65 -38 -56 -4 5 -5 2 -1 -4 4 -8 -4 -24 -21 -40 -15 -14 -22 -23
-14 -18 9 5 7 -1 -4 -19 -9 -14 -22 -23 -28 -19 -5 3 -7 1 -3 -5 8 -13 -24
-83 -36 -76 -4 3 -5 -3 -1 -12 4 -12 3 -15 -5 -10 -8 5 -10 1 -5 -10 5 -13 3
-15 -7 -9 -8 5 -11 4 -6 -3 7 -12 -27 -106 -36 -97 -3 4 -6 0 -5 -7 1 -30 -3
-49 -10 -45 -5 3 -9 -11 -10 -31 -1 -20 -7 -38 -13 -40 -5 -2 -8 -7 -6 -11 4
-5 -3 -38 -29 -141 -2 -8 -4 -25 -4 -38 -1 -16 -5 -21 -13 -16 -10 6 -10 5 -1
-8 7 -8 11 -17 8 -19 -2 -3 -7 -26 -9 -52 -3 -26 -8 -52 -11 -57 -3 -6 -1 -10
5 -10 6 0 8 -5 4 -12 -4 -7 -8 -26 -7 -42 0 -17 -5 -34 -11 -38 -7 -5 -7 -8
-1 -8 12 0 12 -170 0 -190 -5 -9 -4 -11 3 -6 7 4 12 3 12 -3 0 -5 -5 -13 -10
-16 -7 -5 -8 -11 -1 -19 5 -6 12 -56 16 -111 9 -151 12 -182 19 -194 4 -6 2
-11 -3 -11 -6 0 -11 -5 -11 -11 0 -5 4 -8 9 -5 14 9 23 -74 10 -90 -9 -12 -9
-13 4 -8 12 4 17 -6 23 -53 5 -32 8 -66 7 -75 0 -10 4 -18 9 -18 6 0 8 -9 5
-20 -3 -12 -1 -18 5 -14 7 5 9 -2 6 -19 -3 -16 -1 -24 5 -20 6 4 8 -4 5 -20
-3 -16 -1 -24 5 -20 5 3 8 0 5 -8 -3 -8 1 -19 8 -26 6 -7 11 -26 10 -42 -1
-16 1 -28 5 -25 4 2 9 -3 13 -11 3 -8 0 -15 -6 -15 -7 0 -3 -7 8 -15 16 -13
17 -16 4 -25 -13 -8 -12 -10 4 -10 12 0 16 -5 12 -15 -3 -8 -1 -15 5 -15 6 0
8 -4 4 -9 -3 -5 0 -13 6 -16 5 -4 8 -14 5 -22 -3 -8 -1 -11 4 -8 9 5 15 -15
11 -37 0 -5 4 -8 10 -8 5 0 7 -4 4 -10 -3 -5 -2 -10 4 -10 5 0 8 -10 6 -21 -3
-12 -2 -19 2 -16 6 7 55 -89 56 -110 0 -7 4 -13 7 -13 8 0 33 -55 30 -66 -1
-4 2 -10 7 -13 5 -3 20 -26 34 -51 13 -25 30 -51 37 -58 7 -8 10 -18 7 -23 -4
-5 -1 -9 6 -9 7 0 9 -3 6 -6 -4 -4 1 -14 11 -23 9 -9 18 -23 20 -31 2 -8 10
-19 18 -23 8 -4 14 -14 14 -21 0 -7 11 -25 25 -40 14 -15 23 -31 20 -36 -3 -5
4 -14 15 -20 11 -6 20 -17 20 -25 0 -8 5 -15 12 -15 6 0 9 -3 5 -6 -3 -3 4
-17 16 -30 12 -12 27 -29 32 -36 6 -8 19 -25 30 -38 12 -14 14 -20 5 -15 -8 4
-5 -2 7 -14 12 -11 28 -21 34 -21 7 0 10 -3 6 -6 -7 -7 1 -16 58 -76 22 -22
39 -45 38 -50 -2 -4 0 -7 5 -6 6 2 42 -27 103 -85 11 -9 22 -17 25 -17 10 0
33 -27 28 -33 -3 -3 3 -4 13 -3 10 0 17 -4 16 -9 -1 -6 8 -12 19 -12 11 -1 27
-10 35 -20 8 -10 11 -12 8 -5 -6 11 -3 12 14 2 12 -6 19 -15 16 -20 -3 -6 1
-7 10 -4 8 4 23 0 32 -7 9 -8 18 -13 20 -11 1 1 15 2 29 2 17 0 23 -4 18 -12
-5 -9 -2 -9 9 1 9 7 17 9 17 4 0 -10 54 -8 71 2 5 4 9 2 9 -3 0 -6 14 -7 37
-1 21 4 39 6 42 4 2 -3 9 -1 15 4 6 5 30 11 53 15 24 3 54 13 67 22 14 8 30
13 36 9 5 -3 10 -1 10 6 0 6 8 9 20 6 11 -3 17 -1 14 4 -3 5 3 12 13 15 10 3
28 10 40 16 11 6 27 7 34 3 8 -6 10 -4 4 5 -6 10 -4 12 8 7 10 -3 17 -3 17 1
0 10 61 33 71 26 5 -3 9 0 9 7 0 7 10 9 25 7 13 -3 22 -1 19 3 -3 5 -2 9 3 10
4 0 15 2 23 5 50 13 113 23 120 19 5 -3 11 -1 14 3 9 15 136 15 154 0 13 -11
14 -11 7 1 -6 10 -4 12 5 6 7 -4 27 -9 44 -11 75 -6 161 -30 181 -50 8 -8 15
-11 15 -5 0 7 10 7 30 0 17 -6 30 -16 30 -22 0 -6 3 -8 6 -4 7 7 86 -22 95
-36 3 -5 10 -8 15 -8 14 2 124 -32 124 -38 0 -3 10 -7 23 -8 63 -6 96 -16 90
-27 -4 -6 1 -5 10 3 9 7 17 9 17 3 0 -6 13 -7 35 -2 19 4 33 4 30 0 -3 -5 7
-7 22 -5 16 2 28 4 28 5 0 1 11 3 25 5 34 5 123 38 131 49 4 5 14 6 23 3 9 -4
15 -3 13 1 -1 4 2 8 6 9 4 1 15 9 24 18 8 9 22 14 30 11 8 -3 12 -2 9 2 -3 5
4 16 15 25 10 9 19 15 19 12 0 -3 19 13 42 34 23 22 45 38 50 35 5 -3 7 -2 6
3 -2 5 28 39 65 76 38 37 65 67 61 67 -4 0 7 14 25 30 17 17 31 32 31 35 0 3
7 13 16 23 8 9 34 42 57 72 23 30 44 57 47 60 3 3 10 14 17 25 6 11 16 19 22
18 6 -2 8 4 5 12 -4 8 -1 15 6 15 6 0 8 5 5 10 -3 6 -1 10 5 10 6 0 8 5 5 10
-3 6 -2 10 2 10 5 0 25 29 44 65 18 36 38 65 42 65 5 0 5 5 2 10 -3 6 -2 10 3
10 6 0 13 11 16 25 4 14 11 23 17 19 6 -3 9 0 8 7 -4 20 10 59 32 90 10 14 16
29 12 33 -3 3 2 6 13 6 16 0 17 2 4 10 -11 7 -11 10 -2 10 7 0 11 4 7 9 -3 5
-1 12 5 16 6 4 8 10 5 15 -3 5 1 15 9 23 8 8 12 17 9 21 -4 3 -2 6 4 6 5 0 10
7 11 15 1 8 3 22 4 30 1 10 7 14 16 10 11 -4 12 -2 5 7 -14 18 13 82 30 72 9
-6 9 -5 0 7 -8 9 -9 20 -3 29 17 27 10 45 -25 64 -19 10 -32 22 -30 26 3 4 -3
7 -13 6 -9 0 -16 5 -14 12 1 8 -2 11 -8 7 -6 -4 -18 -1 -27 6 -8 7 -25 18 -37
24 -11 7 -20 17 -18 24 1 6 -3 11 -11 9 -14 -3 -30 8 -89 65 -21 20 -44 37
-49 37 -6 0 -9 7 -6 14 4 10 1 13 -9 9 -7 -3 -14 -1 -14 4 0 4 -11 21 -26 36
-14 15 -22 32 -18 39 4 7 3 8 -4 4 -7 -4 -12 -2 -12 4 0 6 -4 8 -10 5 -9 -5
-15 16 -11 38 1 5 -3 6 -8 3 -12 -8 -34 21 -26 34 4 6 1 9 -7 8 -7 -2 -14 7
-16 20 -2 12 -7 22 -11 22 -8 0 -32 49 -34 67 0 4 -6 14 -14 21 -12 13 -38 90
-35 105 1 4 -2 7 -7 7 -6 0 -8 9 -6 20 2 11 -1 20 -7 20 -6 0 -8 9 -5 20 3 11
1 20 -4 20 -5 0 -9 7 -9 16 0 9 5 13 13 9 6 -4 3 1 -7 9 -20 16 -20 16 0 31
16 13 16 14 2 9 -19 -7 -20 1 -22 119 0 26 -4 47 -7 47 -6 0 -5 22 1 40 1 3 2
31 2 63 0 46 3 57 17 58 10 0 11 2 4 6 -15 6 -17 49 -3 58 5 3 6 13 3 22 -4
10 -2 14 4 10 6 -4 8 3 5 20 -3 16 -1 24 5 20 6 -4 9 4 7 18 -1 14 2 27 7 31
5 3 7 10 4 15 -4 5 -2 9 4 9 6 0 8 6 5 14 -3 7 2 16 10 19 9 4 13 13 10 22 -3
8 -1 15 6 15 6 0 9 4 6 9 -6 10 16 61 27 61 4 0 7 7 7 15 0 8 5 15 10 15 6 0
9 4 8 9 -5 16 55 101 71 101 13 0 13 2 2 9 -11 7 -9 11 8 20 12 7 19 16 16 22
-4 5 2 9 11 9 10 0 15 3 11 6 -8 9 44 64 55 58 5 -3 7 -2 6 3 -4 12 34 53 50
53 7 0 11 4 8 8 -3 5 13 24 36 43 22 19 46 40 53 47 8 6 16 12 20 12 4 0 13 7
21 15 13 13 12 18 -11 42 -14 16 -23 34 -20 41 3 7 1 11 -4 8 -5 -3 -14 0 -20
8 -9 11 -9 15 1 20 9 3 8 5 -2 3 -17 -2 -75 50 -75 68 0 5 -7 10 -15 10 -8 1
-14 6 -12 13 1 7 -1 11 -5 11 -24 -4 -35 3 -29 17 3 9 2 12 -5 9 -13 -9 -41
14 -32 28 3 6 1 7 -5 3 -7 -4 -12 -2 -12 4 0 6 -4 8 -10 5 -5 -3 -10 -1 -10 4
0 6 -6 10 -12 9 -7 -2 -12 3 -10 10 1 8 -2 11 -8 7 -5 -3 -10 -1 -10 4 0 6 -3
10 -7 9 -18 -5 -53 14 -53 28 0 8 -4 13 -9 10 -4 -3 -27 3 -49 14 -23 11 -46
20 -52 20 -5 0 -10 5 -10 12 0 6 -3 8 -7 5 -3 -4 -12 1 -20 11 -8 9 -12 11 -8
5 4 -8 0 -13 -9 -13 -9 0 -16 5 -16 11 0 5 -4 7 -10 4 -5 -3 -10 -2 -10 4 0 6
-7 7 -17 4 -10 -4 -14 -2 -10 4 4 7 0 10 -10 8 -10 -1 -29 4 -42 12 -13 8 -20
10 -17 4 8 -12 -6 -15 -18 -4 -4 4 -19 9 -34 10 -15 2 -33 4 -39 5 -7 1 -13 5
-13 10 0 4 -5 8 -11 8 -5 0 -7 -4 -4 -10 4 -6 -2 -7 -17 -2 -13 4 -38 8 -57 7
-19 -1 -35 4 -38 12 -4 11 -8 10 -19 -4 -11 -15 -13 -15 -14 -3 0 13 -1 13
-10 0 -8 -13 -10 -13 -10 0 0 11 -3 11 -12 2 -9 -9 -14 -7 -25 6 -10 13 -12
13 -8 2 5 -13 -4 -16 -47 -15 -29 1 -61 -2 -70 -7 -10 -5 -19 -4 -23 2 -4 7
-11 7 -18 2 -18 -14 -77 -20 -77 -8 0 7 -3 7 -8 -1 -4 -6 -19 -14 -32 -17 -35
-7 -60 -13 -97 -25 -17 -5 -34 -7 -37 -3 -3 3 -6 1 -6 -5 0 -10 -39 -26 -65
-27 -5 -1 -16 -7 -24 -14 -8 -8 -22 -11 -33 -9 -10 3 -16 1 -13 -3 5 -8 -26
-24 -50 -25 -5 -1 -24 -8 -41 -18 -24 -12 -34 -13 -43 -4 -10 9 -12 9 -9 -3 2
-8 -4 -15 -12 -15 -8 0 -17 -3 -20 -7 -3 -4 -32 -10 -65 -13 -33 -4 -62 -7
-65 -8 -10 -2 -95 15 -105 22 -5 3 -13 6 -16 6 -22 0 -286 121 -282 129 3 5 1
6 -5 2 -7 -4 -42 2 -79 13 -78 22 -117 31 -155 35 -15 1 -35 9 -45 17 -16 12
-17 12 -6 -1 10 -14 3 -15 -60 -12 -40 3 -75 9 -79 16 -5 7 -8 3 -9 -9z"/>
</g>
</svg>
