<svg xmlns="http://www.w3.org/2000/svg"
  width="24"
  height="24"
  viewBox="0 0 24 24"
  fill="#828282">
  <path d="M55.92 4H8.08C6.99792 4 5.96015 4.42986 5.195 5.195C4.42986 5.96015 4 6.99792 4 8.08V55.92C4 57.0021 4.42986 58.0398 5.195 58.805C5.96015 59.5701 6.99792 60 8.08 60H55.92C57.0021 60 58.0398 59.5701 58.805 58.805C59.5701 58.0398 60 57.0021 60 55.92V8.08C60 6.99792 59.5701 5.96015 58.805 5.195C58.0398 4.42986 57.0021 4 55.92 4V4ZM20 52H12V25H20V52ZM16 20.7C14.7535 20.7 13.558 20.2048 12.6766 19.3234C11.7952 18.442 11.3 17.2465 11.3 16C11.3 14.7535 11.7952 13.558 12.6766 12.6766C13.558 11.7952 14.7535 11.3 16 11.3V11.3C17.2465 11.3 18.442 11.7952 19.3234 12.6766C20.2048 13.558 20.7 14.7535 20.7 16C20.7 17.2465 20.2048 18.442 19.3234 19.3234C18.442 20.2048 17.2465 20.7 16 20.7ZM52 52H44V37.81C44 33.5 41.27 31.7 39 31.7C38.1867 31.673 37.3769 31.8168 36.6226 32.1221C35.8684 32.4275 35.1866 32.8876 34.6212 33.4728C34.0558 34.058 33.6194 34.7552 33.3401 35.5195C33.0609 36.2838 32.945 37.0982 33 37.91V52H25V25H32.53V28.79H32.64C33.44 27.15 37.08 24.42 41.77 24.42C46.46 24.42 52 27.59 52 35.76V52Z" />
</svg>